<mxfile host="app.diagrams.net" modified="2022-09-16T02:26:29.515Z" agent="5.0 (Macintosh; Intel Mac OS X 10_15_7) AppleWebKit/605.1.15 (KHTML, like Gecko) Version/16.0 Safari/605.1.15" etag="Rwhc05pRhdpdquqY2Qiw" version="20.3.0" type="github">
  <diagram id="6a731a19-8d31-9384-78a2-239565b7b9f0" name="Page-1">
    <mxGraphModel dx="1234" dy="825" grid="1" gridSize="10" guides="1" tooltips="1" connect="1" arrows="1" fold="1" page="1" pageScale="1" pageWidth="1169" pageHeight="827" background="none" math="0" shadow="0">
      <root>
        <mxCell id="0" />
        <mxCell id="1" parent="0" />
        <mxCell id="cAlnYOZRNY9HdxJ_HfJ2-57" style="edgeStyle=orthogonalEdgeStyle;rounded=0;orthogonalLoop=1;jettySize=auto;html=1;exitX=0.5;exitY=1;exitDx=0;exitDy=0;entryX=0.5;entryY=0;entryDx=0;entryDy=0;" edge="1" parent="1" source="cAlnYOZRNY9HdxJ_HfJ2-55" target="cAlnYOZRNY9HdxJ_HfJ2-56">
          <mxGeometry relative="1" as="geometry" />
        </mxCell>
        <mxCell id="cAlnYOZRNY9HdxJ_HfJ2-55" value="Start" style="ellipse;whiteSpace=wrap;html=1;" vertex="1" parent="1">
          <mxGeometry x="550" y="20" width="70" height="30" as="geometry" />
        </mxCell>
        <mxCell id="cAlnYOZRNY9HdxJ_HfJ2-76" style="edgeStyle=orthogonalEdgeStyle;rounded=0;orthogonalLoop=1;jettySize=auto;html=1;exitX=0.5;exitY=1;exitDx=0;exitDy=0;entryX=0.5;entryY=0;entryDx=0;entryDy=0;" edge="1" parent="1" source="cAlnYOZRNY9HdxJ_HfJ2-56" target="cAlnYOZRNY9HdxJ_HfJ2-58">
          <mxGeometry relative="1" as="geometry" />
        </mxCell>
        <mxCell id="cAlnYOZRNY9HdxJ_HfJ2-56" value="List file and constant input, file == 0" style="rounded=1;whiteSpace=wrap;html=1;" vertex="1" parent="1">
          <mxGeometry x="527.5" y="80" width="115" height="30" as="geometry" />
        </mxCell>
        <mxCell id="cAlnYOZRNY9HdxJ_HfJ2-77" style="edgeStyle=orthogonalEdgeStyle;rounded=0;orthogonalLoop=1;jettySize=auto;html=1;exitX=0.5;exitY=1;exitDx=0;exitDy=0;entryX=0.5;entryY=0;entryDx=0;entryDy=0;" edge="1" parent="1" source="cAlnYOZRNY9HdxJ_HfJ2-58" target="cAlnYOZRNY9HdxJ_HfJ2-59">
          <mxGeometry relative="1" as="geometry" />
        </mxCell>
        <mxCell id="cAlnYOZRNY9HdxJ_HfJ2-58" value="" style="ellipse;whiteSpace=wrap;html=1;aspect=fixed;" vertex="1" parent="1">
          <mxGeometry x="575" y="130" width="20" height="20" as="geometry" />
        </mxCell>
        <mxCell id="cAlnYOZRNY9HdxJ_HfJ2-78" style="edgeStyle=orthogonalEdgeStyle;rounded=0;orthogonalLoop=1;jettySize=auto;html=1;exitX=0.5;exitY=1;exitDx=0;exitDy=0;entryX=0.5;entryY=0;entryDx=0;entryDy=0;" edge="1" parent="1" source="cAlnYOZRNY9HdxJ_HfJ2-59" target="cAlnYOZRNY9HdxJ_HfJ2-60">
          <mxGeometry relative="1" as="geometry" />
        </mxCell>
        <mxCell id="cAlnYOZRNY9HdxJ_HfJ2-59" value="Read a file for time and bin waveform" style="rounded=1;whiteSpace=wrap;html=1;" vertex="1" parent="1">
          <mxGeometry x="527.5" y="170" width="115" height="40" as="geometry" />
        </mxCell>
        <mxCell id="cAlnYOZRNY9HdxJ_HfJ2-79" style="edgeStyle=orthogonalEdgeStyle;rounded=0;orthogonalLoop=1;jettySize=auto;html=1;exitX=0.5;exitY=1;exitDx=0;exitDy=0;entryX=0.5;entryY=0;entryDx=0;entryDy=0;" edge="1" parent="1" source="cAlnYOZRNY9HdxJ_HfJ2-60" target="cAlnYOZRNY9HdxJ_HfJ2-65">
          <mxGeometry relative="1" as="geometry" />
        </mxCell>
        <mxCell id="cAlnYOZRNY9HdxJ_HfJ2-60" value="Create feature for input data" style="rounded=1;whiteSpace=wrap;html=1;" vertex="1" parent="1">
          <mxGeometry x="527" y="240" width="115" height="30" as="geometry" />
        </mxCell>
        <mxCell id="cAlnYOZRNY9HdxJ_HfJ2-68" style="edgeStyle=orthogonalEdgeStyle;rounded=0;orthogonalLoop=1;jettySize=auto;html=1;exitX=1;exitY=0.5;exitDx=0;exitDy=0;entryX=0;entryY=0.5;entryDx=0;entryDy=0;" edge="1" parent="1" source="cAlnYOZRNY9HdxJ_HfJ2-64" target="cAlnYOZRNY9HdxJ_HfJ2-66">
          <mxGeometry relative="1" as="geometry" />
        </mxCell>
        <mxCell id="cAlnYOZRNY9HdxJ_HfJ2-70" value="YES" style="edgeLabel;html=1;align=center;verticalAlign=middle;resizable=0;points=[];" vertex="1" connectable="0" parent="cAlnYOZRNY9HdxJ_HfJ2-68">
          <mxGeometry y="-1" relative="1" as="geometry">
            <mxPoint y="1" as="offset" />
          </mxGeometry>
        </mxCell>
        <mxCell id="cAlnYOZRNY9HdxJ_HfJ2-72" value="NO" style="edgeStyle=orthogonalEdgeStyle;rounded=0;orthogonalLoop=1;jettySize=auto;html=1;exitX=0.5;exitY=1;exitDx=0;exitDy=0;entryX=0.5;entryY=0;entryDx=0;entryDy=0;" edge="1" parent="1" source="cAlnYOZRNY9HdxJ_HfJ2-64" target="cAlnYOZRNY9HdxJ_HfJ2-71">
          <mxGeometry relative="1" as="geometry" />
        </mxCell>
        <mxCell id="cAlnYOZRNY9HdxJ_HfJ2-64" value="batch == 0?" style="rhombus;whiteSpace=wrap;html=1;" vertex="1" parent="1">
          <mxGeometry x="530" y="330" width="110" height="45" as="geometry" />
        </mxCell>
        <mxCell id="cAlnYOZRNY9HdxJ_HfJ2-80" style="edgeStyle=orthogonalEdgeStyle;rounded=0;orthogonalLoop=1;jettySize=auto;html=1;exitX=0.5;exitY=1;exitDx=0;exitDy=0;entryX=0.5;entryY=0;entryDx=0;entryDy=0;" edge="1" parent="1" source="cAlnYOZRNY9HdxJ_HfJ2-65" target="cAlnYOZRNY9HdxJ_HfJ2-64">
          <mxGeometry relative="1" as="geometry" />
        </mxCell>
        <mxCell id="cAlnYOZRNY9HdxJ_HfJ2-65" value="" style="ellipse;whiteSpace=wrap;html=1;aspect=fixed;" vertex="1" parent="1">
          <mxGeometry x="575" y="290" width="20" height="20" as="geometry" />
        </mxCell>
        <mxCell id="cAlnYOZRNY9HdxJ_HfJ2-82" style="edgeStyle=orthogonalEdgeStyle;rounded=0;orthogonalLoop=1;jettySize=auto;html=1;exitX=1;exitY=0.5;exitDx=0;exitDy=0;entryX=1;entryY=0.5;entryDx=0;entryDy=0;" edge="1" parent="1" source="cAlnYOZRNY9HdxJ_HfJ2-66" target="cAlnYOZRNY9HdxJ_HfJ2-73">
          <mxGeometry relative="1" as="geometry" />
        </mxCell>
        <mxCell id="cAlnYOZRNY9HdxJ_HfJ2-66" value="data_in[ j ] = bin&lt;br&gt;data_in[ j+1] = bin[::-1]" style="rounded=1;whiteSpace=wrap;html=1;" vertex="1" parent="1">
          <mxGeometry x="700" y="333.75" width="140" height="37.5" as="geometry" />
        </mxCell>
        <mxCell id="cAlnYOZRNY9HdxJ_HfJ2-74" style="edgeStyle=orthogonalEdgeStyle;rounded=0;orthogonalLoop=1;jettySize=auto;html=1;exitX=0.5;exitY=1;exitDx=0;exitDy=0;entryX=0.5;entryY=0;entryDx=0;entryDy=0;" edge="1" parent="1" source="cAlnYOZRNY9HdxJ_HfJ2-71" target="cAlnYOZRNY9HdxJ_HfJ2-73">
          <mxGeometry relative="1" as="geometry" />
        </mxCell>
        <mxCell id="cAlnYOZRNY9HdxJ_HfJ2-71" value="insert 0 in the &amp;nbsp;0 index and inverse" style="rounded=1;whiteSpace=wrap;html=1;" vertex="1" parent="1">
          <mxGeometry x="507" y="414" width="155" height="40" as="geometry" />
        </mxCell>
        <mxCell id="cAlnYOZRNY9HdxJ_HfJ2-84" style="edgeStyle=orthogonalEdgeStyle;rounded=0;orthogonalLoop=1;jettySize=auto;html=1;exitX=0.5;exitY=1;exitDx=0;exitDy=0;entryX=0.5;entryY=0;entryDx=0;entryDy=0;" edge="1" parent="1" source="cAlnYOZRNY9HdxJ_HfJ2-73" target="cAlnYOZRNY9HdxJ_HfJ2-83">
          <mxGeometry relative="1" as="geometry" />
        </mxCell>
        <mxCell id="cAlnYOZRNY9HdxJ_HfJ2-73" value="j = j+2" style="rounded=1;whiteSpace=wrap;html=1;" vertex="1" parent="1">
          <mxGeometry x="555" y="490" width="60" height="27.5" as="geometry" />
        </mxCell>
        <mxCell id="cAlnYOZRNY9HdxJ_HfJ2-85" style="edgeStyle=orthogonalEdgeStyle;rounded=0;orthogonalLoop=1;jettySize=auto;html=1;exitX=1;exitY=0.5;exitDx=0;exitDy=0;entryX=1;entryY=0.5;entryDx=0;entryDy=0;" edge="1" parent="1" source="cAlnYOZRNY9HdxJ_HfJ2-83" target="cAlnYOZRNY9HdxJ_HfJ2-65">
          <mxGeometry relative="1" as="geometry">
            <Array as="points">
              <mxPoint x="880" y="580" />
              <mxPoint x="880" y="300" />
            </Array>
          </mxGeometry>
        </mxCell>
        <mxCell id="cAlnYOZRNY9HdxJ_HfJ2-86" value="NO" style="edgeLabel;html=1;align=center;verticalAlign=middle;resizable=0;points=[];" vertex="1" connectable="0" parent="cAlnYOZRNY9HdxJ_HfJ2-85">
          <mxGeometry x="-0.7747" relative="1" as="geometry">
            <mxPoint as="offset" />
          </mxGeometry>
        </mxCell>
        <mxCell id="cAlnYOZRNY9HdxJ_HfJ2-88" style="edgeStyle=orthogonalEdgeStyle;rounded=0;orthogonalLoop=1;jettySize=auto;html=1;exitX=0.5;exitY=1;exitDx=0;exitDy=0;entryX=0.5;entryY=0;entryDx=0;entryDy=0;" edge="1" parent="1" source="cAlnYOZRNY9HdxJ_HfJ2-83" target="cAlnYOZRNY9HdxJ_HfJ2-87">
          <mxGeometry relative="1" as="geometry" />
        </mxCell>
        <mxCell id="cAlnYOZRNY9HdxJ_HfJ2-89" value="YES" style="edgeLabel;html=1;align=center;verticalAlign=middle;resizable=0;points=[];" vertex="1" connectable="0" parent="cAlnYOZRNY9HdxJ_HfJ2-88">
          <mxGeometry x="-0.2079" y="-1" relative="1" as="geometry">
            <mxPoint as="offset" />
          </mxGeometry>
        </mxCell>
        <mxCell id="cAlnYOZRNY9HdxJ_HfJ2-83" value="j &amp;gt; num_batch-1 ?" style="rhombus;whiteSpace=wrap;html=1;" vertex="1" parent="1">
          <mxGeometry x="515" y="550" width="140" height="60" as="geometry" />
        </mxCell>
        <mxCell id="cAlnYOZRNY9HdxJ_HfJ2-94" style="edgeStyle=orthogonalEdgeStyle;rounded=0;orthogonalLoop=1;jettySize=auto;html=1;exitX=0.5;exitY=1;exitDx=0;exitDy=0;entryX=0.5;entryY=0;entryDx=0;entryDy=0;" edge="1" parent="1" source="cAlnYOZRNY9HdxJ_HfJ2-87" target="cAlnYOZRNY9HdxJ_HfJ2-91">
          <mxGeometry relative="1" as="geometry" />
        </mxCell>
        <mxCell id="cAlnYOZRNY9HdxJ_HfJ2-87" value="Calculate Y_train from AC" style="rounded=1;whiteSpace=wrap;html=1;" vertex="1" parent="1">
          <mxGeometry x="532" y="660" width="105" height="40" as="geometry" />
        </mxCell>
        <mxCell id="cAlnYOZRNY9HdxJ_HfJ2-93" value="YES" style="edgeStyle=orthogonalEdgeStyle;rounded=0;orthogonalLoop=1;jettySize=auto;html=1;exitX=1;exitY=0.5;exitDx=0;exitDy=0;entryX=0;entryY=0.5;entryDx=0;entryDy=0;" edge="1" parent="1" source="cAlnYOZRNY9HdxJ_HfJ2-91" target="cAlnYOZRNY9HdxJ_HfJ2-92">
          <mxGeometry relative="1" as="geometry" />
        </mxCell>
        <mxCell id="cAlnYOZRNY9HdxJ_HfJ2-96" value="NO" style="edgeStyle=orthogonalEdgeStyle;rounded=0;orthogonalLoop=1;jettySize=auto;html=1;exitX=0.5;exitY=1;exitDx=0;exitDy=0;entryX=0.5;entryY=0;entryDx=0;entryDy=0;" edge="1" parent="1" source="cAlnYOZRNY9HdxJ_HfJ2-91" target="cAlnYOZRNY9HdxJ_HfJ2-95">
          <mxGeometry relative="1" as="geometry" />
        </mxCell>
        <mxCell id="cAlnYOZRNY9HdxJ_HfJ2-91" value="file == 0?" style="rhombus;whiteSpace=wrap;html=1;" vertex="1" parent="1">
          <mxGeometry x="543" y="737" width="83" height="53" as="geometry" />
        </mxCell>
        <mxCell id="cAlnYOZRNY9HdxJ_HfJ2-99" style="edgeStyle=orthogonalEdgeStyle;rounded=0;orthogonalLoop=1;jettySize=auto;html=1;exitX=1;exitY=0.5;exitDx=0;exitDy=0;entryX=1;entryY=0.5;entryDx=0;entryDy=0;" edge="1" parent="1" source="cAlnYOZRNY9HdxJ_HfJ2-92" target="cAlnYOZRNY9HdxJ_HfJ2-97">
          <mxGeometry relative="1" as="geometry" />
        </mxCell>
        <mxCell id="cAlnYOZRNY9HdxJ_HfJ2-92" value="create model" style="rounded=1;whiteSpace=wrap;html=1;" vertex="1" parent="1">
          <mxGeometry x="690" y="745.25" width="90" height="36.5" as="geometry" />
        </mxCell>
        <mxCell id="cAlnYOZRNY9HdxJ_HfJ2-98" style="edgeStyle=orthogonalEdgeStyle;rounded=0;orthogonalLoop=1;jettySize=auto;html=1;exitX=0.5;exitY=1;exitDx=0;exitDy=0;entryX=0.5;entryY=0;entryDx=0;entryDy=0;" edge="1" parent="1" source="cAlnYOZRNY9HdxJ_HfJ2-95" target="cAlnYOZRNY9HdxJ_HfJ2-97">
          <mxGeometry relative="1" as="geometry" />
        </mxCell>
        <mxCell id="cAlnYOZRNY9HdxJ_HfJ2-95" value="load model" style="rounded=1;whiteSpace=wrap;html=1;" vertex="1" parent="1">
          <mxGeometry x="547" y="827" width="75" height="30" as="geometry" />
        </mxCell>
        <mxCell id="cAlnYOZRNY9HdxJ_HfJ2-101" style="edgeStyle=orthogonalEdgeStyle;rounded=0;orthogonalLoop=1;jettySize=auto;html=1;exitX=0.5;exitY=1;exitDx=0;exitDy=0;entryX=0.5;entryY=0;entryDx=0;entryDy=0;" edge="1" parent="1" source="cAlnYOZRNY9HdxJ_HfJ2-97" target="cAlnYOZRNY9HdxJ_HfJ2-100">
          <mxGeometry relative="1" as="geometry" />
        </mxCell>
        <mxCell id="cAlnYOZRNY9HdxJ_HfJ2-97" value="fit the model and save model" style="rounded=1;whiteSpace=wrap;html=1;" vertex="1" parent="1">
          <mxGeometry x="522" y="890" width="125" height="40" as="geometry" />
        </mxCell>
        <mxCell id="cAlnYOZRNY9HdxJ_HfJ2-103" value="NO" style="edgeStyle=orthogonalEdgeStyle;rounded=0;orthogonalLoop=1;jettySize=auto;html=1;exitX=0.5;exitY=1;exitDx=0;exitDy=0;entryX=0.5;entryY=0;entryDx=0;entryDy=0;" edge="1" parent="1" source="cAlnYOZRNY9HdxJ_HfJ2-100" target="cAlnYOZRNY9HdxJ_HfJ2-102">
          <mxGeometry relative="1" as="geometry" />
        </mxCell>
        <mxCell id="cAlnYOZRNY9HdxJ_HfJ2-104" style="edgeStyle=orthogonalEdgeStyle;rounded=0;orthogonalLoop=1;jettySize=auto;html=1;exitX=0;exitY=0.5;exitDx=0;exitDy=0;entryX=0;entryY=0.5;entryDx=0;entryDy=0;" edge="1" parent="1" source="cAlnYOZRNY9HdxJ_HfJ2-100" target="cAlnYOZRNY9HdxJ_HfJ2-58">
          <mxGeometry relative="1" as="geometry">
            <Array as="points">
              <mxPoint x="450" y="990" />
              <mxPoint x="450" y="140" />
            </Array>
          </mxGeometry>
        </mxCell>
        <mxCell id="cAlnYOZRNY9HdxJ_HfJ2-105" value="YES" style="edgeLabel;html=1;align=center;verticalAlign=middle;resizable=0;points=[];" vertex="1" connectable="0" parent="cAlnYOZRNY9HdxJ_HfJ2-104">
          <mxGeometry x="-0.9389" relative="1" as="geometry">
            <mxPoint as="offset" />
          </mxGeometry>
        </mxCell>
        <mxCell id="cAlnYOZRNY9HdxJ_HfJ2-100" value="file &amp;lt; total file?" style="rhombus;whiteSpace=wrap;html=1;" vertex="1" parent="1">
          <mxGeometry x="522" y="960" width="125" height="60" as="geometry" />
        </mxCell>
        <mxCell id="cAlnYOZRNY9HdxJ_HfJ2-102" value="end" style="ellipse;whiteSpace=wrap;html=1;" vertex="1" parent="1">
          <mxGeometry x="557.5" y="1070" width="55" height="30" as="geometry" />
        </mxCell>
      </root>
    </mxGraphModel>
  </diagram>
</mxfile>
